<svg xmlns="http://www.w3.org/2000/svg" height="20px" weight="20px" shape-rendering="geometricPrecision" text-rendering="geometricPrecision" image-rendering="optimizeQuality" fill-rule="evenodd" clip-rule="evenodd" viewBox="0 0 512 472.766">
<path fill="#FFFFFF" d="M25.349 191.081h37.162v-41.745H26.895c-13.967 0-25.359-11.392-25.359-25.358V25.359C1.536 11.387 12.923 0 26.895 0h313.66v149.336H99.459v41.745h241.096v152.51h-65.811v55.011h24.173c6.101 0 11.092 5.032 11.092 11.093v3.564h167.812c5.459 0 9.925 4.471 9.925 9.925v25.001c0 5.453-4.471 9.924-9.925 9.924H310.009v3.565c0 6.06-5.032 11.092-11.092 11.092h-87.372c-6.06 0-11.092-4.991-11.092-11.092v-3.565H32.64c-5.453 0-9.924-4.466-9.924-9.924v-25.001c0-5.459 4.466-9.925 9.924-9.925h167.813v-3.564c0-6.101 4.991-11.093 11.092-11.093h24.168v-55.011H25.349C11.402 343.591 0 332.171 0 318.243V216.43c0-13.959 11.39-25.349 25.349-25.349zm423.419-41.745v41.745h36.343c13.938 0 25.348 11.41 25.348 25.349v101.813c0 13.913-11.427 25.348-25.348 25.348H360.709v-152.51h51.111v-41.745h-51.111V0h125.943C500.578 0 512 11.428 512 25.359v98.619c0 13.939-11.422 25.358-25.348 25.358h-37.884zm-33.409-95.94h29.87c3.468 0 6.297 2.831 6.297 6.296v29.952c0 3.465-2.831 6.296-6.297 6.296h-29.87c-3.466 0-6.296-2.828-6.296-6.296V59.692c0-3.468 2.828-6.296 6.296-6.296zM63.001 89.144H98.97v24.772H63.001V89.144zm56.138-53.724h35.968v24.772h-35.968V35.42zm0 53.724h35.968v24.772h-35.968V89.144zM63.001 35.42H98.97v24.772H63.001V35.42zm352.358 210.644h29.87c3.468 0 6.297 2.831 6.297 6.296v29.952c0 3.466-2.831 6.297-6.297 6.297h-29.87c-3.466 0-6.296-2.829-6.296-6.297V252.36c0-3.468 2.828-6.296 6.296-6.296zm-296.22-17.975h35.968v24.772h-35.968v-24.772zm0 53.723h35.968v24.772h-35.968v-24.772zm-56.138-53.723H98.97v24.772H63.001v-24.772zm0 53.723H98.97v24.772H63.001v-24.772z"/></svg>